<svg id="Layer_1" data-name="Layer 1" xmlns="http://www.w3.org/2000/svg" viewBox="0 0 800 800"><defs><style>.cls-1{fill:#e52421;}</style></defs><title>brand</title><path class="cls-1" d="M531,615.36c-81.86-.61-147.47-68.15-147.47-150h0a15.11,15.11,0,0,1,15.11-15.1h2.74a15.19,15.19,0,0,1,15.18,15.19h0c0,64.32,52.63,117.64,117,116.9a114.86,114.86,0,0,0,41.09-8l15.36-6.07L602,599,586.69,605A147.86,147.86,0,0,1,531,615.36Z"/><path class="cls-1" d="M502.26,680l-16.14-3.52A214.73,214.73,0,0,1,317.44,466.76a82.56,82.56,0,0,1,165.12,0,49.54,49.54,0,0,0,99.07,0c0-100.16-81.48-181.64-181.63-181.64S218.36,366.6,218.36,466.76a314.38,314.38,0,0,0,11.56,84.68l4.45,15.9-31.81,8.9-4.44-15.9a347.49,347.49,0,0,1-12.78-93.58c0-118.37,96.29-214.66,214.66-214.66s214.66,96.29,214.66,214.66a82.57,82.57,0,0,1-165.13,0,49.54,49.54,0,1,0-99.07,0c0,84.77,60,159.41,142.71,177.45l16.13,3.53Z"/><path class="cls-1" d="M339.6,671.74l-11.35-12a279.49,279.49,0,0,1-76.8-187.15c-1.73-84,64.66-154.55,148.72-154.45,81.87.09,148.44,66.72,148.44,148.61v1.33a15.18,15.18,0,0,1-15.18,15.18h-2.67a15.18,15.18,0,0,1-15.18-15.18V468c0-63.78-51.13-116.49-114.91-116.86A115.72,115.72,0,0,0,284.41,466.76,246.67,246.67,0,0,0,352.23,637l11.35,12Z"/><path class="cls-1" d="M196.31,324.85l-25.77-20.66,10.33-12.88A280.73,280.73,0,0,1,598.5,268.26a284,284,0,0,1,20.64,23.05l10.32,12.89-25.77,20.65L593.36,312a249.52,249.52,0,0,0-18.22-20.35A247.71,247.71,0,0,0,206.63,312Z"/><path class="cls-1" d="M551.76,191.6l-14.86-7.21a314.43,314.43,0,0,0-273.81,0l-14.86,7.21L233.8,161.9l14.85-7.22a347.58,347.58,0,0,1,302.69,0l14.85,7.22Z"/></svg>