<svg id="Layer_1" data-name="Layer 1" xmlns="http://www.w3.org/2000/svg" viewBox="0 0 800 800"><defs><style>.cls-1{fill:#e52421;}</style></defs><title>criacao</title><path class="cls-1" d="M433,617.73H366.74V554.59l2.74,30H433ZM399.88,255.24c-74.4,0-134.94,60.53-134.94,134.94a134.21,134.21,0,0,0,38.18,94.05A118.54,118.54,0,0,1,336,554.71l.76,7v86h30V681.5h38.33l-1.34-4H433V647.73h30v-86l.76-7a118.54,118.54,0,0,1,32.87-70.49,134.2,134.2,0,0,0,38.17-94C534.82,315.77,474.29,255.24,399.88,255.24Zm-.07,213.58-57.15-57.15,21.22-21.21L400,426.54l36.46-35.94L457.48,412Z"/><rect class="cls-1" x="384.45" y="118.5" width="30" height="77.32"/><rect class="cls-1" x="128.81" y="375.24" width="77.32" height="30"/><rect class="cls-1" x="593.86" y="375.24" width="77.32" height="30"/><rect class="cls-1" x="220.58" y="187.16" width="30" height="77.32" transform="translate(-90.68 232.72) rotate(-45)"/><rect class="cls-1" x="549.42" y="516" width="30" height="77.32" transform="translate(-226.89 561.56) rotate(-45)"/><rect class="cls-1" x="196.92" y="539.66" width="77.32" height="30" transform="translate(-323.2 329.04) rotate(-45)"/><rect class="cls-1" x="525.76" y="210.82" width="77.32" height="30" transform="translate(5.64 465.25) rotate(-45)"/></svg>