<svg id="Layer_1" data-name="Layer 1" xmlns="http://www.w3.org/2000/svg" viewBox="0 0 800 800"><defs><style>.cls-1{fill:#e52421;}</style></defs><title>estrategia</title><polygon class="cls-1" points="573.45 562.6 621.37 624.13 621.09 617.36 646.09 651.36 608.94 681.7 537.58 590.29 521.09 568.36 535.09 591.36 488.58 656.95 480.48 617.45 474.41 587.82 466.54 549.44 456.93 502.31 452.57 507.9 441.73 428.43 461.46 438.2 489.56 452.1 525.06 469.68 552.37 483.2 587.51 500.59 614.62 514.01 650.87 531.95 575.34 560.83 572.82 561.79 573.45 562.6"/><path class="cls-1" d="M572.82,561.79l.63.81,1.89-1.77Zm-36.3,27.14L534,592.58c1.21-.75,2.43-1.51,3.63-2.29ZM581,193.29a256,256,0,1,0-181,437,257.62,257.62,0,0,0,51.44-5.15l-6-29.39A228.2,228.2,0,0,1,400,600.3,225.66,225.66,0,1,1,602.65,474.61l26.89,13.31A256.41,256.41,0,0,0,581,193.29Z"/><path class="cls-1" d="M400,187c-103.3,0-187.34,84-187.34,187.34S296.7,561.65,400,561.65a187.49,187.49,0,0,0,37.64-3.8l-6-29.39A157.56,157.56,0,0,1,400,531.65c-86.76,0-157.34-70.59-157.34-157.35S313.24,217,400,217,557.35,287.54,557.35,374.3A156.52,156.52,0,0,1,541,444.1l26.89,13.31a186.41,186.41,0,0,0,19.45-83.11C587.35,271,503.3,187,400,187Z"/><path class="cls-1" d="M400,255.62a118.69,118.69,0,1,0,23.84,235l-6-29.39a88.73,88.73,0,1,1,61.66-47.55L506.36,427A118.66,118.66,0,0,0,400,255.62Z"/><path class="cls-1" d="M450,374.3a49.64,49.64,0,0,1-5.2,22.19A50,50,0,1,1,450,374.3Z"/></svg>