<svg id="Layer_1" data-name="Layer 1" xmlns="http://www.w3.org/2000/svg" viewBox="0 0 800 800"><defs><style>.cls-1{fill:#e52421;}</style></defs><title>midia</title><g id="_Group_" data-name="&lt;Group&gt;"><path class="cls-1" d="M458.83,222.07l-105.4,73.78-6.51,4.55V473.5l6.51,4.55,111.05,77.74-3.18,2.27,50.49,35.33V185ZM79.17,387a86.7,86.7,0,0,0,56.88,81.18A85.74,85.74,0,0,0,162,473.24V615H279V535.76l-4.49,3.47V473.31H313V300.59H165.53A86.48,86.48,0,0,0,79.17,387Zm116.48,87.39h45.17v50.91H198.33l-2.68,33.66Z"/></g><g id="_Group_2" data-name="&lt;Group&gt;"><path class="cls-1" d="M568.48,552.35V518.69a118.69,118.69,0,1,0,0-237.38V247.65c84,0,152.35,68.34,152.35,152.35S652.49,552.35,568.48,552.35Z"/></g><g id="_Group_3" data-name="&lt;Group&gt;"><path class="cls-1" d="M568.48,462V428.35a28.35,28.35,0,0,0,0-56.7V338a62,62,0,0,1,0,124Z"/></g></svg>