<svg id="Layer_1" data-name="Layer 1" xmlns="http://www.w3.org/2000/svg" viewBox="0 0 800 800"><defs><style>.cls-1{fill:#e52421;}</style></defs><title>plano</title><path class="cls-1" d="M607.75,406.3l-48.8-72A195,195,0,0,0,363.76,144a203.5,203.5,0,0,0-41.56,4.32,194.13,194.13,0,0,0-149,149.76c-13.53,66.32,6.34,132.49,53.25,179.09,0-.13,2.58-37.49,2.58-37.49V656H439V594h63.08l-2.56,5H553V422.45l3.41,39.6L591.15,452,631,440.62ZM454,339a89.64,89.64,0,0,1-1.65,16.38L482.93,373l-30,52-30.83-17.8A89.85,89.85,0,0,1,394,423.45V459H334V423.44a89.8,89.8,0,0,1-28.1-16.29L275.07,425l-30-52,30.57-17.64a82,82,0,0,1,0-32.74L245.07,305l30-52L305.9,270.8A90.23,90.23,0,0,1,334,254.49V219h60v35.53a90.38,90.38,0,0,1,28.09,16.31L452.92,253l30,52-30.58,17.66A89.6,89.6,0,0,1,454,339Zm-90.08-48.36A48.37,48.37,0,1,0,407.3,317.4,48.44,48.44,0,0,0,363.92,290.61Z"/></svg>