<svg id="Layer_1" data-name="Layer 1" xmlns="http://www.w3.org/2000/svg" viewBox="0 0 800 800"><defs><style>.cls-1{fill:#e52421;}</style></defs><title>social</title><path class="cls-1" d="M621.81,340.6H494.08V291.67l19.11-59.13,1.49-4.64V175.78H414.81l-7,21.19-28.64,86.22L321.71,340.6h-31.8l.06-30.68-149-.27-.53,289.63,149,.26.06-30.75h32.21l46.36,46.36,9.07,9.07h225.7l5-24.88,37.49-187.46,4.41,2.94,14.85-74.22ZM577.47,593.27H390l-55.43-55.43H289.65V484.76l.21-113.21h44.67l71.66-71.66,30.95-93.16h46.6V223l-20.61,63.76v84.76H621.81Z"/><polygon class="cls-1" points="205.68 599.54 203.18 604.55 289.44 604.63 289.44 562 205.68 599.54"/><polygon class="cls-1" points="463.13 286.79 463.13 435.62 467.66 367.62 463.13 286.79"/></svg>