<svg id="Layer_1" data-name="Layer 1" xmlns="http://www.w3.org/2000/svg" viewBox="0 0 800 800"><defs><style>.cls-1{fill:#e52421;}</style></defs><title>tel</title><path class="cls-1" d="M576,154.09,554.2,175.87l-89.58,89.58-21.21,21.21,21.21,21.21,23,23-202,202,44-49-41.68-41.68-21.21,21.21-77,76.92-1.16-3.58-35.63,35.74L177.75,596a292.59,292.59,0,0,0,35.88,29c18.47,12.45,34.65,19.17,49.44,20.53,2.53.23,5.16.35,7.84.35,15.67,0,33.82-3.93,53.95-11.68,18-6.92,37.53-16.86,58.18-29.54,41.15-25.28,83.88-59.62,123.57-99.31,42.92-42.92,79-88.44,104.26-131.64,18.22-31.12,39.25-75.81,35.92-111.9-2.79-30.28-28.52-63.15-49.61-85.4L576,154.09Z"/><path class="cls-1" d="M204.26,378h-30c0-113,92-205,205-205v30C282.76,203,204.26,281.53,204.26,378Z"/><path class="cls-1" d="M274.26,378h-30c0-74.44,60.56-135,135-135v30A105.12,105.12,0,0,0,274.26,378Z"/></svg>